<svg xmlns:xlink="http://www.w3.org/1999/xlink" xmlns="http://www.w3.org/2000/svg" width="98" height="28" viewBox="0 0 98 28" fill="none">
<path d="M60.9159 19.3865L57.5423 14.8353L54.1725 19.3865H52.7842L56.8399 13.8878L53.1359 8.88946H54.5242L57.5423 12.9659L60.5605 8.88946H61.9478L58.2467 13.8868L62.3032 19.3865H60.9159Z" fill="white"/>
<path d="M34.6284 19.3847L30.5681 13.8868L34.272 8.88946H32.8837L29.8647 12.9668L26.8484 8.88946H25.4639L29.1659 13.8868L25.1066 19.3847H26.4967L29.8666 14.8353L33.2391 19.3847H34.6284Z" fill="white"/>
<path d="M42.3472 14.2843C42.1278 14.0966 41.8881 13.9531 41.6549 13.8463C42.4221 13.4324 42.9247 12.6513 42.9247 11.7442C42.9247 11.0726 42.6757 8.88854 39.492 8.88854H35.204V13.414H33.7759C33.5908 13.6541 33.1697 14.2309 33.0096 14.4673H35.204V19.3847L39.4929 19.3856C41.8159 19.3856 43.2588 18.2135 43.2588 16.3211C43.2588 15.495 42.9451 14.793 42.3472 14.2843ZM36.3896 9.98424H39.4929C40.3323 9.98424 41.7391 10.1922 41.7391 11.6522C41.7391 12.7562 40.92 13.414 39.4929 13.414H36.3896V9.98424ZM39.492 18.2908H36.3887V14.4701H39.492C40.6683 14.4701 42.076 14.793 42.076 16.2981C42.076 18.0314 40.4573 18.2908 39.492 18.2908Z" fill="white"/>
<path d="M48.8369 8.64751C45.8706 8.64751 43.7975 10.9024 43.7975 14.1316C43.7975 17.3653 45.8706 19.6184 48.8369 19.6184C51.8004 19.6184 53.868 17.3653 53.868 14.1316C53.868 10.9024 51.8004 8.64751 48.8369 8.64751ZM48.8369 18.5079C46.5768 18.5079 44.9932 16.7075 44.9932 14.1316C44.9932 11.5556 46.5768 9.75609 48.8369 9.75609C51.0933 9.75609 52.6676 11.5556 52.6676 14.1316C52.6676 16.7075 51.0933 18.5079 48.8369 18.5079Z" fill="white"/>
<path d="M7.00162 7.76617C6.99514 7.77077 6.99329 7.77353 6.99329 7.77353C5.37734 9.35959 4.375 11.563 4.375 14C4.375 15.9927 5.046 17.829 6.17421 19.3001C6.18624 19.3148 6.20475 19.3231 6.22141 19.3148C6.23714 19.3056 6.23807 19.2863 6.23159 19.2697C5.56059 17.2071 8.99056 12.2079 10.7629 10.1121C10.7685 10.1048 10.7759 10.0965 10.7759 10.0864C10.7759 10.0744 10.7676 10.0652 10.7592 10.0579C7.77813 7.10838 6.98219 7.78273 6.99329 7.77353" fill="white"/>
<path d="M19.3536 7.76617C19.3601 7.77077 19.3619 7.77352 19.3619 7.77352C20.9779 9.35958 21.9793 11.563 21.9793 14C21.9793 15.9927 21.3083 17.829 20.1801 19.3C20.169 19.3148 20.1495 19.323 20.1329 19.3148C20.1181 19.3056 20.1171 19.2862 20.1227 19.2697C20.7937 17.2071 17.3665 12.2042 15.5951 10.1075C15.5886 10.1002 15.5821 10.0919 15.5821 10.0827C15.5821 10.0698 15.5895 10.0606 15.5988 10.0533C18.5808 7.10377 19.3712 7.78272 19.361 7.77352" fill="white"/>
<path d="M13.1776 5.25C14.9537 5.25 16.4151 5.73391 17.7626 6.53062C17.7793 6.5389 17.7839 6.5573 17.7774 6.57386C17.771 6.5895 17.7524 6.59318 17.7349 6.58858C16.031 6.22243 13.4405 7.68613 13.1961 7.8324C13.1906 7.83608 13.185 7.83976 13.1776 7.83976C13.1693 7.83976 13.1637 7.83608 13.1582 7.8324C12.5085 7.46165 10.1141 6.21415 8.60647 6.59778C8.58981 6.60146 8.5713 6.5987 8.5639 6.58214C8.55742 6.5665 8.56297 6.5481 8.57871 6.5389C9.92626 5.73391 11.4062 5.25 13.1776 5.25Z" fill="white"/>
<path d="M13.1776 12.2677C13.1878 12.2677 13.1989 12.2759 13.2054 12.2815C15.8394 14.2723 20.3476 19.1942 18.9714 20.5862L18.9732 20.5843L18.9723 20.5862H18.9714C17.4239 21.933 15.3961 22.7509 13.1767 22.7509C10.9573 22.7509 8.9304 21.933 7.38201 20.5862C6.00854 19.1942 10.5158 14.2723 13.1471 12.2815C13.1545 12.2759 13.1665 12.2677 13.1776 12.2677Z" fill="white"/>
<path d="M82.7951 8.88946V17.5033L76.4118 8.88302L75.3651 8.88118V19.369H76.5405V10.9456L82.7933 19.3755L83.9715 19.3773V8.88946H82.7951Z" fill="white"/>
<path d="M69.2631 8.64568C66.2968 8.64568 64.2227 10.9015 64.2227 14.1297C64.2227 17.3635 66.2968 19.6202 69.2631 19.6202C72.2266 19.6202 74.2942 17.3635 74.2942 14.1297C74.2942 10.9024 72.2266 8.64568 69.2631 8.64568ZM69.2631 18.5079C67.003 18.5079 65.4194 16.7075 65.4194 14.1297C65.4194 11.5547 67.003 9.75427 69.2631 9.75427C71.5195 9.75427 73.0938 11.5547 73.0938 14.1297C73.0938 16.7075 71.5195 18.5079 69.2631 18.5079Z" fill="white"/>
<path d="M86.4731 18.3506V14.4701H92.2826V13.4434H86.4731V9.90789H92.6769V8.88211H85.2913V19.3773H92.75V18.3506H86.4731Z" fill="white"/>
</svg>