<svg xmlns:xlink="http://www.w3.org/1999/xlink" xmlns="http://www.w3.org/2000/svg" width="98" height="28" viewBox="0 0 98 28" fill="none">
<path d="M88.5428 18.7381H89.4791V18.8761H89.0927V19.942H88.9296V18.8761H88.5429V18.7381H88.5428Z" fill="white"/>
<path d="M88.9295 19.942H89.0927V18.8761H89.4791V18.7381H88.5428V18.8761H88.9295V19.942Z" fill="white"/>
<path d="M89.6292 18.7381H89.8542L90.2039 19.766L90.5423 18.7381H90.7389V19.942H90.604V18.9638L90.279 19.942H90.1174L89.7924 18.9638V19.942H89.6294V18.7381H89.6292Z" fill="white"/>
<path d="M89.7924 18.9638L90.1174 19.942H90.279L90.604 18.9638V19.942H90.7388V18.7381H90.5423L90.2039 19.766L89.8542 18.7381H89.6292V19.942H89.7924V18.9638Z" fill="white"/>
<path d="M62.9596 17.058V12.0799C62.9596 11.0644 63.4345 10.3371 64.4474 10.3371H70.6953C70.7336 10.3371 70.7704 10.2993 70.7704 10.2617V9.27129C70.7704 9.26265 70.7679 9.25418 70.7646 9.24605H63.1252C61.4693 9.45613 60.6604 10.6078 60.6604 12.0799V17.0578C60.6604 18.0733 60.1722 18.8007 59.1728 18.8007H52.5745C52.5371 18.8007 52.4995 18.8258 52.4995 18.876V19.8666C52.4995 19.9076 52.5248 19.939 52.5544 19.9494H60.0457C61.9983 19.8983 62.9596 18.6542 62.9596 17.058Z" fill="white"/>
<path d="M37.2907 19.9496H39.4844C39.5141 19.9391 39.5393 19.9078 39.5393 19.8667V16.6943C39.5393 15.6787 40.1141 14.9764 40.9514 14.9764H49.9873C52.0244 14.9764 53.0118 13.7225 53.0118 12.0799C53.0118 10.6078 52.2036 9.45613 50.5469 9.24605H37.2501C37.2498 9.2467 37.2495 9.24733 37.2492 9.24796C37.2483 9.24973 37.2473 9.25143 37.2463 9.25312C37.243 9.25855 37.2398 9.26394 37.2398 9.27129V10.2617C37.2398 10.3119 37.2648 10.3371 37.3147 10.3371H49.2248C50.2372 10.3371 50.7122 11.0644 50.7122 12.0799C50.7122 13.0956 50.2372 13.8229 49.2248 13.8229H39.8018C38.3396 13.8229 37.2398 15.0644 37.2398 16.6943V19.8667C37.2397 19.9078 37.2573 19.939 37.2907 19.9496Z" fill="white"/>
<path d="M70.7338 18.8009H82.7315C82.7682 18.8009 82.7932 18.826 82.7932 18.851V19.8667C82.7932 19.9169 82.8315 19.942 82.8682 19.942H85.0308C85.0691 19.942 85.1055 19.9169 85.1055 19.8667V18.8761C85.1055 18.8384 85.1438 18.8009 85.1806 18.8009H87.3298C87.3799 18.8009 87.4049 18.7632 87.4049 18.7258V17.7226C87.4049 17.6849 87.3799 17.6473 87.3298 17.6473H85.1806C85.1438 17.6473 85.1055 17.6096 85.1055 17.5721V10.3371C85.1055 9.74676 84.8857 9.37077 84.5161 9.24605H83.8904C83.6954 9.29603 83.4834 9.38555 83.2561 9.52189L70.3339 17.4843C69.834 17.7976 69.6588 18.1486 69.784 18.4119C69.8838 18.6378 70.1705 18.8009 70.7338 18.8009ZM72.608 17.4718L82.6183 11.2901C82.6339 11.2777 82.6533 11.2691 82.6737 11.2653C82.6814 11.2639 82.6893 11.2631 82.6972 11.2631C82.7522 11.2631 82.8065 11.2996 82.8065 11.3904V17.5721C82.8065 17.6098 82.7682 17.6473 82.7315 17.6473H72.6699C72.6122 17.6473 72.5759 17.6363 72.5546 17.6215C72.5439 17.6141 72.537 17.6056 72.5331 17.5972C72.5269 17.5743 72.5288 17.554 72.5387 17.5351C72.5391 17.5343 72.5395 17.5335 72.54 17.5327C72.5405 17.5318 72.5411 17.5308 72.5417 17.5298C72.5542 17.5095 72.5763 17.4907 72.608 17.4718Z" fill="white"/>
<path fill-rule="evenodd" clip-rule="evenodd" d="M82.6181 11.2901C82.6338 11.2776 82.6532 11.2691 82.6737 11.2653C82.6533 11.2691 82.6339 11.2777 82.6183 11.2901L72.608 17.4718L82.6181 11.2901ZM72.5329 17.5972C72.5268 17.5743 72.5288 17.554 72.5387 17.5351C72.5288 17.554 72.5269 17.5743 72.5331 17.5972C72.537 17.6056 72.5439 17.6141 72.5546 17.6215C72.5438 17.6141 72.5369 17.6056 72.5329 17.5972Z" fill="white"/>
<path d="M15.5365 5.25C15.5871 5.25941 15.6377 5.26904 15.6882 5.27886C16.6108 5.45828 17.519 5.70444 18.4229 5.96046C18.9684 6.11856 19.5124 6.28214 20.0529 6.45635C20.9019 6.72622 21.7472 7.0318 22.5161 7.4875C22.8606 7.69625 23.1914 7.93208 23.4741 8.21972C23.7805 8.51848 24.0312 8.87288 24.2153 9.2585C24.5506 9.95734 24.6654 10.738 24.6993 11.5056C24.7153 12.0065 24.7143 12.5117 24.6206 13.0061C24.5428 13.4357 24.4043 13.8594 24.174 14.2326C23.9707 14.5622 23.6879 14.8472 23.3448 15.0309C23.0157 15.2079 22.6388 15.2923 22.2655 15.2848C21.6994 15.2908 21.1501 15.1106 20.6421 14.8746C20.6364 13.8322 20.6373 12.7897 20.6381 11.7473C20.6386 11.1035 20.6391 10.4597 20.6381 9.81601C20.6373 9.74617 20.6377 9.67616 20.6382 9.60611C20.6397 9.37018 20.6411 9.13381 20.5937 8.90178C20.5504 8.66861 20.4551 8.43362 20.2717 8.27535C20.15 8.16591 19.9925 8.10413 19.834 8.07075C19.6738 8.04036 19.5029 8.10828 19.4037 8.23666C19.2388 8.44225 19.1956 8.71528 19.1881 8.9712C19.1875 10.8644 19.1877 12.7576 19.1879 14.6507C19.1882 17.2716 19.1885 19.8924 19.1867 22.5131C17.97 22.1283 16.7531 21.7432 15.5367 21.3572C15.5354 15.9977 15.5358 10.6384 15.5365 5.27886C15.5365 5.26924 15.5365 5.25962 15.5365 5.25Z" fill="white"/>
<path d="M10.0675 16.673C10.7427 16.4344 11.4176 16.1949 12.0925 15.9554L12.0933 15.9551C13.0038 15.6319 13.9142 15.3088 14.8255 14.988C14.8269 15.3537 14.8267 15.7193 14.8264 16.0851C14.8262 16.3412 14.8261 16.5973 14.8265 16.8535C14.8262 16.8777 14.8264 16.9019 14.8267 16.9262C14.8273 16.9864 14.8279 17.0466 14.8203 17.1064C14.0499 17.379 13.2805 17.6545 12.5111 17.9299L12.5107 17.9301L12.5104 17.9302L12.51 17.9303C12.027 18.1032 11.5441 18.2761 11.0609 18.4483C10.8872 18.5137 10.709 18.588 10.575 18.7203C10.5126 18.7825 10.4619 18.8741 10.496 18.9631C10.5389 19.0679 10.6461 19.1249 10.7449 19.1681C11.0198 19.2797 11.3204 19.2955 11.6132 19.3089C11.9397 19.3038 12.2675 19.2793 12.5874 19.2089C12.8035 19.1666 13.0115 19.0938 13.2175 19.0166C13.3522 18.9679 13.487 18.9192 13.6217 18.8704C14.0225 18.7254 14.4234 18.5803 14.8248 18.437C14.8273 18.7675 14.8269 19.0981 14.8266 19.4288C14.8263 19.6242 14.8261 19.8197 14.8265 20.0152C14.8259 20.0493 14.8263 20.0835 14.8266 20.1177C14.8272 20.1889 14.8279 20.2601 14.8208 20.3309C14.1622 20.449 13.4957 20.5292 12.8263 20.5397C11.4783 20.5701 10.1271 20.3618 8.84661 19.9413C8.42661 19.8199 8.00927 19.6583 7.65866 19.3921C7.46563 19.243 7.2929 19.0555 7.20504 18.8248C7.13149 18.6295 7.13682 18.4038 7.2285 18.2153C7.31686 18.0273 7.47129 17.8787 7.64135 17.7633C8.03489 17.4921 8.46887 17.2853 8.90868 17.1008C9.17419 16.9877 9.44665 16.8922 9.71907 16.7967C9.8354 16.7559 9.95173 16.7151 10.0675 16.673Z" fill="white"/>
<path d="M22.8311 15.965C23.1582 15.9273 23.4873 15.9157 23.8161 15.9042C23.8489 15.9031 23.8818 15.9019 23.9146 15.9008C25.1045 15.9052 26.3005 16.053 27.4387 16.4093C27.5592 16.4458 27.6776 16.4882 27.7961 16.5306C27.8972 16.5667 27.9983 16.6029 28.1008 16.6355C28.4973 16.7801 28.8944 16.9555 29.2119 17.24C29.4027 17.4137 29.5671 17.6477 29.5695 17.9149C29.5808 18.1323 29.4821 18.3409 29.3408 18.5013C29.0719 18.8022 28.7165 19.009 28.3595 19.1893C28.0739 19.3347 27.7722 19.4413 27.4707 19.5477C27.3712 19.5829 27.2718 19.618 27.1729 19.6545C26.6714 19.8342 26.1698 20.014 25.6682 20.1937C23.7383 20.8853 21.8083 21.5769 19.8786 22.2693C19.8785 21.9975 19.8786 21.7256 19.8787 21.4538C19.8788 21.046 19.8789 20.6383 19.8783 20.2306C19.8788 20.2267 19.879 20.2223 19.8789 20.2177C19.8789 20.2142 19.8788 20.2105 19.8787 20.2068C19.8778 20.1819 19.8768 20.1544 19.9054 20.1491C21.5698 19.558 23.2338 18.9655 24.8978 18.373C25.0835 18.3068 25.2691 18.2407 25.4548 18.1746C25.5075 18.155 25.561 18.1365 25.6146 18.1179C25.8158 18.0483 26.019 17.978 26.1867 17.8443C26.2735 17.7762 26.3585 17.6679 26.3159 17.5512C26.2715 17.4491 26.1654 17.3924 26.0677 17.3502C25.7908 17.2408 25.4893 17.2195 25.1947 17.2114C24.7336 17.2146 24.2684 17.2714 23.8299 17.4188C23.244 17.6237 22.6587 17.8297 22.0733 18.0357L22.0731 18.0358L22.0729 18.0358L22.0728 18.0359C21.3416 18.2932 20.6105 18.5505 19.8786 18.8055C19.8787 18.5438 19.8787 18.2822 19.8786 18.0206C19.8786 18.0169 19.8786 18.0132 19.8786 18.0094C19.8786 17.5451 19.8786 17.0809 19.879 16.6165C20.8326 16.2826 21.8284 16.0801 22.8311 15.965Z" fill="white"/>
<path d="M28.2364 20.993C28.5241 20.9572 28.8246 21.0859 28.997 21.3187C29.1852 21.5589 29.2197 21.9053 29.0867 22.1796C28.9526 22.4643 28.6458 22.6637 28.3281 22.6533C28.0357 22.6598 27.7525 22.4899 27.6086 22.2383C27.4784 22.0166 27.463 21.7327 27.5636 21.4969C27.6768 21.2247 27.9434 21.0259 28.2364 20.993ZM28.1738 21.1463C28.0128 21.1829 27.8665 21.2804 27.7703 21.4144C27.6547 21.572 27.6109 21.7806 27.6548 21.9714C27.6918 22.1486 27.8041 22.3069 27.9557 22.405C28.1891 22.5581 28.5165 22.5497 28.7398 22.3814C28.9702 22.219 29.0797 21.9069 29.0005 21.6367C28.9516 21.4541 28.8208 21.2986 28.6561 21.2081C28.5096 21.1304 28.3349 21.108 28.1738 21.1463Z" fill="white"/>
<path d="M27.9745 21.3418C28.0645 21.3413 28.1546 21.3413 28.2448 21.3414C28.3048 21.3414 28.3649 21.3414 28.4249 21.3413C28.5098 21.3425 28.6033 21.3622 28.6634 21.4272C28.724 21.4954 28.7288 21.5946 28.7122 21.6801C28.7051 21.7231 28.6744 21.7527 28.6442 21.7819C28.6348 21.791 28.6254 21.8 28.6168 21.8095C28.6218 21.8139 28.6271 21.8183 28.6324 21.8227L28.6325 21.8228C28.6603 21.8461 28.6896 21.8705 28.6958 21.9084C28.7034 21.9461 28.7042 21.9846 28.7049 22.0231C28.706 22.0729 28.707 22.1227 28.7226 22.1705C28.7228 22.1707 28.7229 22.1709 28.723 22.1711C28.7404 22.2008 28.7579 22.2309 28.7592 22.2665C28.724 22.2674 28.6888 22.2675 28.6535 22.2675C28.6266 22.2675 28.5997 22.2676 28.5727 22.268C28.5492 22.2128 28.5487 22.1537 28.5482 22.0946C28.5478 22.0483 28.5474 22.0019 28.5359 21.9573C28.5256 21.9159 28.4827 21.8902 28.4417 21.8915C28.3708 21.8885 28.2997 21.889 28.2288 21.8896C28.1983 21.8898 28.1677 21.8901 28.1372 21.89C28.1367 21.9354 28.137 21.9808 28.1373 22.0262C28.1379 22.1069 28.1385 22.1876 28.1342 22.268C28.0813 22.2672 28.0282 22.2672 27.9753 22.2682C27.9734 22.0484 27.9738 21.8291 27.9742 21.6098C27.9743 21.5205 27.9745 21.4312 27.9745 21.3418ZM28.1372 21.4886C28.1374 21.5738 28.1374 21.659 28.1372 21.7445C28.1463 21.7446 28.1553 21.7446 28.1644 21.7447C28.2461 21.7451 28.3279 21.7456 28.4098 21.7449C28.4549 21.7445 28.5073 21.7361 28.5366 21.6979C28.5674 21.6492 28.5667 21.5844 28.5389 21.5349C28.5156 21.4959 28.4662 21.4921 28.4256 21.4896C28.3535 21.4875 28.2813 21.4879 28.2092 21.4883C28.1852 21.4884 28.1612 21.4886 28.1372 21.4886Z" fill="white"/>
<path fill-rule="evenodd" clip-rule="evenodd" d="M15.5365 5.27886H15.6882C16.6108 5.45828 17.519 5.70444 18.4229 5.96046C18.9684 6.11856 19.5124 6.28214 20.0529 6.45635C20.9019 6.72622 21.7472 7.0318 22.5161 7.4875C22.8606 7.69625 23.1914 7.93208 23.4741 8.21972C23.7805 8.51848 24.0312 8.87288 24.2153 9.2585C24.5506 9.95734 24.6654 10.738 24.6993 11.5056C24.7153 12.0065 24.7143 12.5117 24.6206 13.0061C24.5428 13.4357 24.4043 13.8594 24.174 14.2326C23.9707 14.5622 23.6879 14.8472 23.3448 15.0309C23.0157 15.2079 22.6388 15.2923 22.2655 15.2848C21.6994 15.2908 21.1501 15.1106 20.6421 14.8746C20.6364 13.8322 20.6373 12.7897 20.6381 11.7473C20.6386 11.1035 20.6391 10.4597 20.6381 9.81601C20.6373 9.74617 20.6377 9.67616 20.6382 9.60611C20.6397 9.37018 20.6411 9.13381 20.5937 8.90178C20.5504 8.66861 20.4551 8.43362 20.2717 8.27535C20.15 8.16591 19.9925 8.10413 19.834 8.07075C19.6738 8.04036 19.5029 8.10828 19.4037 8.23666C19.2388 8.44225 19.1956 8.71528 19.1881 8.9712C19.1875 10.8644 19.1877 12.7576 19.1879 14.6507C19.1882 17.2716 19.1885 19.8924 19.1867 22.5131C17.97 22.1283 16.7531 21.7432 15.5367 21.3572C15.5354 15.9977 15.5358 10.6384 15.5365 5.27886ZM88.5428 18.7381H88.5429H89.4791V18.8761H89.0927V19.942H88.9296H88.9295V18.8761H88.5429H88.5428V18.7381ZM89.6292 18.7381H89.6294H89.8542L90.2039 19.766L90.5423 18.7381H90.7388H90.7389V19.942H90.7388H90.604V18.9638L90.279 19.942H90.1174L89.7924 18.9638V19.942H89.6294H89.6292V18.7381ZM62.9596 12.0799V17.058C62.9596 18.6542 61.9983 19.8983 60.0457 19.9494H52.5544C52.5248 19.939 52.4995 19.9076 52.4995 19.8666V18.876C52.4995 18.8258 52.5371 18.8007 52.5745 18.8007H59.1728C60.1722 18.8007 60.6604 18.0733 60.6604 17.0578V12.0799C60.6604 10.6078 61.4693 9.45613 63.1252 9.24605H70.7646C70.7679 9.25418 70.7704 9.26265 70.7704 9.27129V10.2617C70.7704 10.2993 70.7336 10.3371 70.6953 10.3371H64.4474C63.4345 10.3371 62.9596 11.0644 62.9596 12.0799ZM39.4844 19.9496H37.2907C37.2573 19.939 37.2397 19.9078 37.2398 19.8667V16.6943C37.2398 15.0644 38.3396 13.8229 39.8018 13.8229H49.2248C50.2372 13.8229 50.7122 13.0956 50.7122 12.0799C50.7122 11.0644 50.2372 10.3371 49.2248 10.3371H37.3147C37.2648 10.3371 37.2398 10.3119 37.2398 10.2617V9.27129C37.2398 9.26394 37.243 9.25855 37.2463 9.25312C37.2473 9.25143 37.2483 9.24973 37.2492 9.24796C37.2495 9.24733 37.2498 9.2467 37.2501 9.24605H50.5469C52.2036 9.45613 53.0118 10.6078 53.0118 12.0799C53.0118 13.7225 52.0244 14.9764 49.9873 14.9764H40.9514C40.1141 14.9764 39.5393 15.6787 39.5393 16.6943V19.8667C39.5393 19.9078 39.5141 19.9391 39.4844 19.9496ZM82.7315 18.8009H70.7338C70.1705 18.8009 69.8838 18.6378 69.784 18.4119C69.6588 18.1486 69.834 17.7976 70.3339 17.4843L83.2561 9.52189C83.4834 9.38555 83.6954 9.29603 83.8904 9.24605H84.5161C84.8857 9.37077 85.1055 9.74676 85.1055 10.3371V17.5721C85.1055 17.6096 85.1438 17.6473 85.1806 17.6473H87.3298C87.3799 17.6473 87.4049 17.6849 87.4049 17.7226V18.7258C87.4049 18.7632 87.3799 18.8009 87.3298 18.8009H85.1806C85.1438 18.8009 85.1055 18.8384 85.1055 18.8761V19.8667C85.1055 19.9169 85.0691 19.942 85.0308 19.942H82.8682C82.8315 19.942 82.7932 19.9169 82.7932 19.8667V18.851C82.7932 18.826 82.7682 18.8009 82.7315 18.8009ZM12.0933 15.9551L12.0925 15.9554C11.4176 16.1949 10.7427 16.4344 10.0675 16.673C9.95173 16.7151 9.8354 16.7559 9.71907 16.7967C9.44665 16.8922 9.17419 16.9877 8.90868 17.1008C8.46887 17.2853 8.03489 17.4921 7.64135 17.7633C7.47129 17.8787 7.31686 18.0273 7.2285 18.2153C7.13682 18.4038 7.13149 18.6295 7.20504 18.8248C7.2929 19.0555 7.46563 19.243 7.65866 19.3921C8.00927 19.6583 8.42661 19.8199 8.84661 19.9413C10.1271 20.3618 11.4783 20.5701 12.8263 20.5397C13.4957 20.5292 14.1622 20.449 14.8208 20.3309C14.8279 20.2601 14.8272 20.1889 14.8266 20.1177C14.8263 20.0835 14.8259 20.0493 14.8265 20.0152C14.8261 19.8197 14.8263 19.6242 14.8266 19.4288C14.8269 19.0981 14.8273 18.7675 14.8248 18.437C14.4234 18.5803 14.0225 18.7254 13.6217 18.8704C13.487 18.9192 13.3522 18.9679 13.2175 19.0166C13.0115 19.0938 12.8035 19.1666 12.5874 19.2089C12.2675 19.2793 11.9397 19.3038 11.6132 19.3089C11.3204 19.2955 11.0198 19.2797 10.7449 19.1681C10.6461 19.1249 10.5389 19.0679 10.496 18.9631C10.4619 18.8741 10.5126 18.7825 10.575 18.7203C10.709 18.588 10.8872 18.5137 11.0609 18.4483C11.5441 18.2761 12.027 18.1032 12.51 17.9303L12.5104 17.9302L12.5107 17.9301L12.5111 17.9299C13.2805 17.6545 14.0499 17.379 14.8203 17.1064C14.8279 17.0466 14.8273 16.9864 14.8267 16.9262C14.8264 16.9019 14.8262 16.8777 14.8265 16.8535C14.8261 16.5973 14.8262 16.3412 14.8264 16.0851C14.8267 15.7193 14.8269 15.3537 14.8255 14.988C13.9142 15.3088 13.0038 15.6319 12.0933 15.9551ZM23.9146 15.9008C23.8818 15.9019 23.8489 15.9031 23.8161 15.9042C23.4873 15.9157 23.1582 15.9273 22.8311 15.965C21.8284 16.0801 20.8326 16.2826 19.879 16.6165C19.8786 17.0809 19.8786 17.5451 19.8786 18.0094V18.0206C19.8787 18.2822 19.8787 18.5438 19.8786 18.8055C20.6105 18.5505 21.3416 18.2932 22.0728 18.0359L22.0729 18.0358L22.0731 18.0358L22.0733 18.0357C22.6587 17.8297 23.244 17.6237 23.8299 17.4188C24.2684 17.2714 24.7336 17.2146 25.1947 17.2114C25.4893 17.2195 25.7908 17.2408 26.0677 17.3502C26.1654 17.3924 26.2715 17.4491 26.3159 17.5512C26.3585 17.6679 26.2735 17.7762 26.1867 17.8443C26.019 17.978 25.8158 18.0483 25.6146 18.1179C25.561 18.1365 25.5075 18.155 25.4548 18.1746L24.8978 18.373C23.2338 18.9655 21.5698 19.558 19.9054 20.1491C19.8768 20.1544 19.8778 20.1819 19.8787 20.2068C19.8788 20.2105 19.8789 20.2142 19.8789 20.2177C19.879 20.2223 19.8788 20.2267 19.8783 20.2306C19.8789 20.6383 19.8788 21.046 19.8787 21.4538C19.8786 21.7256 19.8785 21.9975 19.8786 22.2693C21.8083 21.5769 23.7383 20.8853 25.6682 20.1937L27.1729 19.6545C27.2718 19.618 27.3712 19.5829 27.4707 19.5477C27.7722 19.4413 28.0739 19.3347 28.3595 19.1893C28.7165 19.009 29.0719 18.8022 29.3408 18.5013C29.4821 18.3409 29.5808 18.1323 29.5695 17.9149C29.5671 17.6477 29.4027 17.4137 29.2119 17.24C28.8944 16.9555 28.4973 16.7801 28.1008 16.6355C27.9983 16.6029 27.8972 16.5667 27.7961 16.5306C27.6776 16.4882 27.5592 16.4458 27.4387 16.4093C26.3005 16.053 25.1045 15.9052 23.9146 15.9008ZM28.997 21.3187C28.8246 21.0859 28.5241 20.9572 28.2364 20.993C27.9434 21.0259 27.6768 21.2247 27.5636 21.4969C27.463 21.7327 27.4784 22.0166 27.6086 22.2383C27.7525 22.4899 28.0357 22.6598 28.3281 22.6533C28.6458 22.6637 28.9526 22.4643 29.0867 22.1796C29.2197 21.9053 29.1852 21.5589 28.997 21.3187ZM82.7313 17.6472H72.6697C72.6122 17.6472 72.5759 17.6362 72.5546 17.6215C72.5439 17.6141 72.537 17.6056 72.5331 17.5972C72.5269 17.5743 72.5288 17.554 72.5387 17.5351L72.54 17.5327C72.5405 17.5318 72.5411 17.5308 72.5417 17.5298C72.5542 17.5095 72.5763 17.4907 72.608 17.4718L82.6183 11.2901C82.6339 11.2777 82.6533 11.2691 82.6737 11.2653C82.6814 11.2639 82.6893 11.2631 82.6972 11.2631C82.7522 11.2632 82.8063 11.2997 82.8063 11.3904V17.5719C82.8063 17.6095 82.7681 17.6472 82.7313 17.6472ZM28.1738 21.1463C28.0128 21.1829 27.8665 21.2804 27.7703 21.4144C27.6547 21.572 27.6109 21.7806 27.6548 21.9714C27.6918 22.1486 27.8041 22.3069 27.9557 22.405C28.1891 22.5581 28.5165 22.5497 28.7398 22.3814C28.9702 22.219 29.0797 21.9069 29.0005 21.6367C28.9516 21.4541 28.8208 21.2986 28.6561 21.2081C28.5096 21.1304 28.3349 21.108 28.1738 21.1463ZM28.4249 21.3413C28.3649 21.3414 28.3048 21.3414 28.2448 21.3414C28.1546 21.3413 28.0645 21.3413 27.9745 21.3418C27.9745 21.4312 27.9743 21.5205 27.9742 21.6098C27.9738 21.8291 27.9734 22.0484 27.9753 22.2682C28.0282 22.2672 28.0813 22.2672 28.1342 22.268C28.1385 22.1876 28.1379 22.1069 28.1373 22.0262C28.137 21.9808 28.1367 21.9354 28.1372 21.89C28.1677 21.8901 28.1983 21.8898 28.2288 21.8896C28.2997 21.889 28.3708 21.8885 28.4417 21.8915C28.4827 21.8902 28.5256 21.9159 28.5359 21.9573C28.5474 22.0019 28.5478 22.0483 28.5482 22.0946C28.5487 22.1537 28.5492 22.2128 28.5727 22.268C28.5997 22.2676 28.6266 22.2675 28.6535 22.2675C28.6888 22.2675 28.724 22.2674 28.7592 22.2665C28.7579 22.2309 28.7404 22.2008 28.723 22.1711L28.7226 22.1705C28.707 22.1227 28.706 22.0729 28.7049 22.0231C28.7042 21.9846 28.7034 21.9461 28.6958 21.9084C28.6896 21.8705 28.6603 21.8461 28.6325 21.8228L28.6324 21.8227C28.6271 21.8183 28.6218 21.8139 28.6168 21.8095C28.6254 21.8 28.6348 21.791 28.6442 21.7819C28.6744 21.7527 28.7051 21.7231 28.7122 21.6801C28.7288 21.5946 28.724 21.4954 28.6634 21.4272C28.6033 21.3622 28.5098 21.3425 28.4249 21.3413ZM28.1372 21.7445C28.1374 21.659 28.1374 21.5738 28.1372 21.4886C28.1612 21.4886 28.1852 21.4884 28.2092 21.4883C28.2813 21.4879 28.3535 21.4875 28.4256 21.4896C28.4662 21.4921 28.5156 21.4959 28.5389 21.5349C28.5667 21.5844 28.5674 21.6492 28.5366 21.6979C28.5073 21.7361 28.4549 21.7445 28.4098 21.7449C28.3279 21.7456 28.2461 21.7451 28.1644 21.7447L28.1372 21.7445Z" fill="white"/>
</svg>