<svg xmlns:xlink="http://www.w3.org/1999/xlink" xmlns="http://www.w3.org/2000/svg" width="36" height="28" viewBox="0 0 36 28" fill="none">
<path d="M28.1669 12.0845C28.0771 11.5383 27.6447 9.87576 25.67 9.87576C23.4343 9.87576 22.7163 11.98 22.7163 14.004C22.7163 16.028 23.4343 18.1323 25.67 18.1323C27.2775 18.1323 27.9058 17.04 28.1832 15.6264H32.8668C32.8668 18.6624 30.3292 21.883 25.7924 21.883C20.7824 21.883 17.9347 18.4535 17.9347 14.004C17.9347 9.26536 21.0191 6.125 25.7924 6.125C30.0436 6.14909 32.3936 8.31763 32.8016 12.0845H28.1669Z" fill="white"/>
<path d="M7.89838 13.3936H9.74246C10.9827 13.3936 12.2801 13.3133 12.2801 11.7953C12.2801 10.4299 11.1949 10.3416 10.0199 10.3416H7.89838V13.3936ZM3.125 6.48642H11.1133C15.3236 6.48642 16.8005 9.48221 16.8005 11.6267C16.8005 15.273 14.2792 16.9757 10.7216 16.9757H7.89838V21.5216H3.125V6.48642Z" fill="white"/>
</svg>