<svg xmlns:xlink="http://www.w3.org/1999/xlink" xmlns="http://www.w3.org/2000/svg" width="99" height="28" viewBox="0 0 99 28" fill="none">
<path fill-rule="evenodd" clip-rule="evenodd" d="M9.27329 20.1039C7.41475 19.5982 7.09916 18.5544 7.94869 17.9529C8.73424 17.3953 10.0699 16.9789 10.0699 16.9789L15.5859 15.1039V17.2403L11.6163 18.5982C10.9143 18.8417 10.8069 19.1794 11.3775 19.3571C11.9481 19.5349 12.9793 19.4846 13.6804 19.2443L15.5841 18.5836V20.4951C15.4639 20.5162 15.3283 20.5365 15.2046 20.556C13.2182 20.8643 11.1828 20.7092 9.27329 20.1039ZM20.9107 20.3263L27.1005 18.224C27.8033 17.9805 27.9107 17.6445 27.3401 17.4667C26.7695 17.289 25.7383 17.3393 25.0372 17.5804L20.9124 18.9651V16.7581L21.1512 16.681C22.0832 16.3941 23.0439 16.2001 24.018 16.1023C25.694 15.9261 27.7461 16.1266 29.3565 16.7078C31.1724 17.2549 31.3771 18.0609 30.9156 18.6161C30.4542 19.1713 29.3232 19.5666 29.3232 19.5666L20.9124 22.4472L20.9107 20.3263ZM21.6349 6.64367C24.8939 7.71429 25.9985 9.04708 25.9985 12.0503C25.9985 14.9765 24.1101 16.086 21.7116 14.9781V9.5211C21.7116 8.88149 21.5888 8.29221 20.961 8.125C20.48 7.97727 20.1815 8.40503 20.1815 9.04464V22.7013L16.333 21.5325V5.25C17.9698 5.54058 20.3538 6.22403 21.6349 6.64042V6.64367ZM29.9083 21.5909C29.9111 21.6124 29.9084 21.6341 29.9004 21.6544C29.8923 21.6746 29.8793 21.6926 29.8623 21.707C29.8201 21.7318 29.771 21.7437 29.7215 21.7411H29.4256V21.4497H29.7394C29.7745 21.4484 29.8095 21.4545 29.8418 21.4675C29.8645 21.4795 29.883 21.4976 29.8948 21.5196C29.9067 21.5415 29.9114 21.5664 29.9083 21.5909ZM30.1207 22.2549C30.1122 22.25 30.105 22.2433 30.0996 22.2355C30.0941 22.2276 30.0906 22.2187 30.0891 22.2094C30.0829 22.1828 30.08 22.1555 30.0806 22.1282L30.0746 21.9959C30.0771 21.9476 30.064 21.8998 30.0371 21.8588C30.0191 21.8385 29.9975 21.8214 29.9731 21.8084C30.0051 21.7886 30.0327 21.763 30.0542 21.733C30.0835 21.6853 30.0979 21.6307 30.096 21.5755C30.1002 21.523 30.0873 21.4705 30.059 21.4252C30.0308 21.3799 29.9886 21.3439 29.9382 21.3222C29.8742 21.2971 29.8052 21.2852 29.736 21.2873H29.2405V22.3182H29.4256V21.8953H29.7173C29.7558 21.8932 29.7945 21.8988 29.8307 21.9115C29.8507 21.9224 29.867 21.9385 29.8778 21.9579C29.8885 21.9773 29.8932 21.9992 29.8913 22.0211L29.8998 22.1834C29.9002 22.2106 29.9028 22.2378 29.9075 22.2646C29.9101 22.2781 29.9147 22.2913 29.9211 22.3036L29.9279 22.3157H30.1343V22.2557L30.1207 22.2549ZM28.8507 21.8247C28.85 21.6209 28.934 21.4251 29.0844 21.28C29.1577 21.2084 29.2454 21.1515 29.3422 21.1126C29.4391 21.0738 29.5431 21.0537 29.6482 21.0537C29.7533 21.0537 29.8573 21.0738 29.9541 21.1126C30.0509 21.1515 30.1386 21.2084 30.212 21.28C30.3232 21.3877 30.3988 21.5241 30.4294 21.6723C30.4601 21.8204 30.4445 21.9739 30.3845 22.1136C30.3245 22.2534 30.2228 22.3735 30.0919 22.4588C29.9611 22.5442 29.8068 22.5913 29.6482 22.5942C29.5431 22.5942 29.4391 22.5743 29.3423 22.5356C29.2455 22.4968 29.1578 22.44 29.0844 22.3685C28.9342 22.2236 28.8502 22.0282 28.8507 21.8247ZM29.6482 22.75C29.7744 22.7502 29.8995 22.7262 30.0158 22.6795C30.1321 22.6327 30.2374 22.5643 30.3254 22.4781C30.5052 22.3033 30.6059 22.0685 30.6059 21.8239C30.6059 21.5793 30.5052 21.3444 30.3254 21.1696C30.2372 21.0837 30.1319 21.0155 30.0156 20.9689C29.8993 20.9223 29.7744 20.8984 29.6482 20.8985C29.4575 20.902 29.272 20.9585 29.1147 21.0612C28.9574 21.1638 28.8352 21.3081 28.7631 21.4761C28.6911 21.6442 28.6724 21.8287 28.7093 22.0067C28.7462 22.1848 28.8372 22.3487 28.9709 22.4781C29.0589 22.5643 29.1642 22.6327 29.2806 22.6795C29.3969 22.7262 29.5219 22.7502 29.6482 22.75Z" fill="white"/>
<path d="M89.6151 19.3094H89.4528V18.243H89.0809V18.0938H89.9886V18.243H89.6167L89.6151 19.3094ZM90.7399 19.0272L91.0873 18.0938H91.3408V19.3102H91.1718V18.2933L90.7873 19.3094H90.6842L90.3013 18.2933V19.3094H90.1407V18.093H90.3943L90.7399 19.0272ZM87.4532 8.81024H71.9027V12.8552C71.9027 12.8552 71.8554 14.4171 73.8685 14.4171H83.3737C83.7466 14.4141 84.116 14.4862 84.458 14.6287C84.9888 14.8558 85.5855 15.318 85.5855 16.2506C85.5855 17.0875 85.1629 17.5627 84.7445 17.8287C84.3982 18.0434 83.994 18.1561 83.5816 18.153H71.9027V19.2883H84.9254C84.9254 19.2883 87.8834 19.1732 87.8834 16.2563C87.8834 14.7731 86.9808 14.0383 86.1686 13.6783C85.6438 13.447 85.0728 13.3283 84.4952 13.3304H75.0745C74.9175 13.3324 74.7625 13.297 74.6232 13.2274C74.4221 13.1228 74.2007 12.9152 74.2007 12.5065V9.93014H87.4532V8.81024ZM52.3303 18.149V19.2843H58.9308C59.7197 19.2923 60.4851 19.0265 61.0859 18.5358C61.3958 18.2834 61.6429 17.9678 61.8093 17.612C61.9757 17.2562 62.0572 16.8692 62.0476 16.4793V11.6534C62.0442 11.3895 62.1033 11.1283 62.2204 10.8895C62.3376 10.6507 62.5096 10.4405 62.7237 10.2748C63.0276 10.0466 63.4036 9.92494 63.7894 9.93014H69.544V8.81024H62.6908C62.6908 8.81024 59.7328 8.85565 59.7328 11.8577V16.3641C59.738 16.7332 59.6343 17.0961 59.4336 17.411C59.2885 17.6439 59.0811 17.8353 58.8329 17.9655C58.5848 18.0957 58.3049 18.1598 58.0223 18.1514L52.3303 18.149ZM37.0908 8.81024V9.93014H48.8551C49.1823 9.92747 49.5061 9.9942 49.8033 10.1256C50.2698 10.3356 50.7938 10.7678 50.7938 11.6445C50.7938 12.4959 50.2698 12.9217 49.8033 13.1325C49.5012 13.2656 49.1723 13.3331 48.8399 13.3304H40.1147C39.5982 13.3258 39.0878 13.4368 38.6239 13.6548C37.8979 14.0043 37.0908 14.8274 37.0908 16.1849V19.2665H39.3549V16.1987C39.3534 15.9991 39.391 15.8011 39.4656 15.6148C39.6524 15.155 40.1249 14.4171 41.2294 14.4171H50.0273C50.3232 14.4186 50.6178 14.3807 50.9028 14.3043C51.7108 14.0838 53.0579 13.4464 53.0579 11.6445C53.0579 8.8443 50.1532 8.81024 50.1532 8.81024H37.0908Z" fill="white"/>
</svg>