<svg xmlns:xlink="http://www.w3.org/1999/xlink" xmlns="http://www.w3.org/2000/svg" width="30" height="26" viewBox="0 0 30 26" fill="none">
<path d="M4.8209 4.76327C4.76764 4.8013 4.72416 4.85153 4.69406 4.90979C4.66395 4.96805 4.64809 5.03267 4.64778 5.0983V5.10335C4.64828 5.15812 4.65959 5.21352 4.68295 5.26614L6.6549 9.74026C6.69732 9.83598 6.77414 9.91209 6.87001 9.95338C6.96588 9.99468 7.07373 9.99811 7.17201 9.96299C8.46315 9.50201 12.9345 8.04336 15.8282 8.83016C15.8282 8.83016 12.9254 8.99825 10.3007 11.0595C10.229 11.1161 10.1781 11.1951 10.1561 11.284C10.1341 11.3729 10.1422 11.4666 10.1792 11.5503C10.3924 12.0324 10.8202 13.0017 11.0623 13.5495L11.4022 14.3481C11.4831 14.5375 11.7417 14.5604 11.8558 14.3888C12.4682 13.4652 13.5008 13.0039 14.4928 12.6011C15.5089 12.1889 16.5694 11.8812 17.6511 11.6981C18.8037 11.503 19.9805 11.4508 21.1454 11.554C21.2392 11.5627 21.3333 11.5389 21.4118 11.4866C21.4904 11.4343 21.5488 11.3565 21.5773 11.2663L22.4682 8.41512C22.4939 8.33273 22.4931 8.24431 22.466 8.16237C22.4389 8.08044 22.3868 8.00914 22.3172 7.95856C21.3238 7.23788 17.3885 4.8174 10.4686 5.78971C10.4686 5.78971 16.3737 2.39301 23.8702 6.12437C24.0974 6.23756 24.3715 6.11869 24.4474 5.87703L25.2329 3.36267C25.2451 3.32367 25.251 3.28418 25.2517 3.24531V3.23319C25.2506 3.16122 25.2308 3.0908 25.1942 3.02892C25.1576 2.96704 25.1055 2.91587 25.043 2.88049C24.102 2.34758 20.9166 0.75 16.5345 0.75C13.1758 0.749748 9.11456 1.68811 4.8209 4.76327Z" fill="white"/>
<path d="M8.5486 25.2435H7.82495C7.7703 25.2435 7.7179 25.2217 7.67926 25.1829C7.64061 25.144 7.61891 25.0914 7.61891 25.0365V20.8338H5.84622C5.79175 20.8335 5.7396 20.8116 5.70118 20.7728C5.66276 20.734 5.64119 20.6815 5.64119 20.6268V19.9758C5.64119 19.8616 5.7334 19.7688 5.84723 19.7688H10.5276C10.6414 19.7688 10.7336 19.8616 10.7336 19.9758V20.6269C10.7336 20.6818 10.7119 20.7344 10.6732 20.7732C10.6346 20.812 10.5822 20.8338 10.5276 20.8338H8.75463V25.0366C8.75463 25.0915 8.73293 25.1442 8.69429 25.183C8.65565 25.2218 8.60324 25.2435 8.5486 25.2435ZM5.16579 24.8461C5.431 24.5798 5.53955 24.2409 5.53955 23.677V23.5335C5.53955 22.9691 5.431 22.6313 5.16579 22.3641C4.88475 22.0816 4.51224 21.9665 3.88119 21.9665H1.59014C1.54503 21.9665 1.50036 21.9576 1.45868 21.9402C1.41701 21.9229 1.37915 21.8974 1.34726 21.8654C1.31537 21.8333 1.29009 21.7953 1.27285 21.7534C1.2556 21.7115 1.24675 21.6666 1.24678 21.6213V21.1785C1.24681 21.0871 1.283 20.9994 1.34739 20.9347C1.41178 20.8701 1.49909 20.8338 1.59014 20.8338H4.87017C4.92482 20.8338 4.97723 20.812 5.01587 20.7731C5.05451 20.7343 5.07621 20.6817 5.07621 20.6268V19.9758C5.07621 19.9209 5.05451 19.8682 5.01587 19.8294C4.97723 19.7906 4.92482 19.7688 4.87017 19.7688H1.78336C1.15205 19.7688 0.779801 19.884 0.498383 20.1666C0.23317 20.4328 0.125 20.7718 0.125 21.3358V21.449C0.125 22.0143 0.233045 22.352 0.498383 22.6184C0.779801 22.9009 1.15205 23.016 1.78324 23.016H4.0827C4.17379 23.016 4.26115 23.0524 4.32558 23.117C4.39001 23.1817 4.42624 23.2694 4.42631 23.3609V23.8335C4.42631 23.925 4.39011 24.0128 4.32567 24.0776C4.26123 24.1423 4.17383 24.1786 4.0827 24.1786H0.628287C0.573643 24.1786 0.521236 24.2005 0.482596 24.2393C0.443956 24.2781 0.422249 24.3307 0.422249 24.3856V25.0366C0.422249 25.0915 0.443956 25.1442 0.482596 25.183C0.521236 25.2218 0.573643 25.2436 0.628287 25.2436H3.88219C4.5125 25.2436 4.88475 25.1284 5.16579 24.8461ZM21.5388 22.4911V22.5288C21.5388 23.5838 21.3724 24.1245 20.9023 24.5966C20.4684 25.0322 19.8226 25.25 18.9784 25.25H16.482C16.4273 25.25 16.3749 25.2282 16.3363 25.1894C16.2976 25.1506 16.2759 25.098 16.2759 25.0431V19.9758C16.2759 19.8616 16.3681 19.7688 16.482 19.7688H18.9793C19.8236 19.7688 20.4706 19.9893 20.9031 20.4225C21.3733 20.8941 21.5388 21.4365 21.5388 22.4911ZM20.4034 22.4911C20.4034 21.789 20.359 21.4515 20.0848 21.1761C19.8604 20.9507 19.4988 20.8416 18.9784 20.8416H17.4117V24.1786H18.9793C19.4997 24.1786 19.8616 24.0691 20.0856 23.8439C20.3599 23.5688 20.4042 23.2308 20.4042 22.5288L20.4034 22.4911ZM23.3809 25.0366V19.9758C23.3809 19.9209 23.3592 19.8682 23.3205 19.8294C23.2819 19.7906 23.2295 19.7688 23.1748 19.7688H22.4521C22.3974 19.7688 22.345 19.7906 22.3064 19.8294C22.2677 19.8682 22.246 19.9209 22.246 19.9758V25.0366C22.246 25.1508 22.3382 25.2436 22.4521 25.2436H23.1757C23.2304 25.2436 23.2828 25.2218 23.3214 25.183C23.36 25.1442 23.3818 25.0915 23.3818 25.0366H23.3809ZM15.6104 25.2436H14.8451C14.7925 25.2436 14.741 25.2284 14.6967 25.1998C14.6524 25.1713 14.6172 25.1306 14.5952 25.0826L14.2432 24.3171H11.4024L11.0497 25.083C11.0278 25.1306 10.9929 25.1709 10.949 25.1993C10.9051 25.2277 10.854 25.2429 10.8018 25.2432H10.0327C9.99784 25.2433 9.96354 25.2344 9.93301 25.2175C9.90249 25.2006 9.87673 25.1762 9.85815 25.1465C9.83957 25.1169 9.82878 25.083 9.82679 25.0481C9.8248 25.0131 9.83167 24.9782 9.84677 24.9467L12.171 20.0872C12.2305 19.9648 12.3231 19.8616 12.4381 19.7894C12.5532 19.7173 12.6861 19.679 12.8218 19.679C12.9574 19.679 13.0903 19.7173 13.2054 19.7894C13.3204 19.8616 13.413 19.9648 13.4725 20.0872L15.7968 24.946C15.812 24.9776 15.8191 25.0125 15.8172 25.0475C15.8153 25.0826 15.8046 25.1166 15.7861 25.1463C15.7676 25.176 15.7418 25.2006 15.7113 25.2176C15.6807 25.2346 15.6464 25.2435 15.6115 25.2435L15.6104 25.2436ZM11.8663 23.3036H13.7806L12.8254 21.1163L11.8663 23.3036ZM29.6686 25.2435H28.9016C28.849 25.2435 28.7975 25.2283 28.7532 25.1998C28.709 25.1713 28.6738 25.1306 28.6518 25.0826L28.3004 24.3171H25.4596L25.1072 25.083C25.0852 25.1305 25.0503 25.1708 25.0064 25.1992C24.9625 25.2276 24.9115 25.2428 24.8593 25.2432H24.0902C24.0553 25.2433 24.021 25.2344 23.9905 25.2175C23.96 25.2006 23.9342 25.1762 23.9156 25.1465C23.8971 25.1169 23.8863 25.083 23.8843 25.0481C23.8823 25.0131 23.8892 24.9782 23.9043 24.9467L26.2285 20.0872C26.2879 19.9647 26.3804 19.8614 26.4955 19.7891C26.6106 19.7168 26.7436 19.6785 26.8793 19.6785C27.015 19.6785 27.1479 19.7168 27.263 19.7891C27.3781 19.8614 27.4706 19.9647 27.53 20.0872L29.8543 24.946C29.8695 24.9776 29.8766 25.0126 29.8747 25.0476C29.8728 25.0827 29.8621 25.1167 29.8435 25.1465C29.8249 25.1762 29.7991 25.2007 29.7685 25.2177C29.7379 25.2347 29.7035 25.2435 29.6686 25.2435ZM25.9234 23.3036H27.8377L26.8829 21.1163L25.9234 23.3036Z" fill="white"/>
</svg>